<svg width="73" height="72" viewBox="0 0 73 72" fill="none" xmlns="http://www.w3.org/2000/svg">
<path d="M65.9379 15.1863V67.0596C65.9379 68.3699 65.4174 69.6265 64.4909 70.553C63.5644 71.4795 62.3078 72 60.9975 72H19.0048C17.9359 72 16.8958 71.6533 16.0406 71.0119C15.7019 70.7617 15.3986 70.4667 15.139 70.135C14.4457 69.2596 14.0672 68.1763 14.0645 67.0596V15.1863C14.0645 13.876 14.585 12.6194 15.5115 11.6929C16.438 10.7664 17.6946 10.2459 19.0048 10.2459H60.9975C62.3078 10.2459 63.5644 10.7664 64.4909 11.6929C65.4174 12.6194 65.9379 13.876 65.9379 15.1863Z" fill="#FC9D69"/>
<path d="M60.9974 16.4212V57.1788H53.5869C52.9324 57.1808 52.3053 57.4417 51.8424 57.9045C51.3796 58.3673 51.1187 58.9945 51.1168 59.649V67.0595H20.2398C19.9122 67.0595 19.5981 66.9293 19.3664 66.6977C19.1348 66.4661 19.0047 66.1519 19.0047 65.8244V16.4212C19.0047 16.0936 19.1348 15.7795 19.3664 15.5479C19.5981 15.3162 19.9122 15.1861 20.2398 15.1861H59.7623C60.0899 15.1861 60.4041 15.3162 60.6357 15.5479C60.8673 15.7795 60.9974 16.0936 60.9974 16.4212Z" fill="#F5F5F5"/>
<path d="M44.7314 50.3986L43.8545 54.7708L41.2361 57.3891C40.7771 57.855 40.5198 58.4827 40.5198 59.1368C40.5198 59.7908 40.7771 60.4186 41.2361 60.8844C41.4656 61.1141 41.738 61.2963 42.0379 61.4206C42.3377 61.5449 42.6592 61.6089 42.9838 61.6089C43.3084 61.6089 43.6298 61.5449 43.9297 61.4206C44.2296 61.2963 44.502 61.1141 44.7314 60.8844L47.3498 58.266L51.722 57.3891L52.5865 56.5122L60.9974 48.1013V34.1449L44.7314 50.3986Z" fill="#D8D7DA"/>
<path d="M65.938 29.2045L60.9977 34.1424V48.1012L65.938 43.1609V29.2045Z" fill="#8B5E3C"/>
<path d="M30.9603 61.4648C30.6709 62.6031 30.2174 63.6931 29.614 64.7007L31.3802 67.0597H20.2398C19.9122 67.0597 19.5981 66.9296 19.3664 66.698C19.1348 66.4664 19.0047 66.1522 19.0047 65.8247V42.3581H21.4749L22.0553 46.4586C23.1936 46.748 24.2836 47.2015 25.2913 47.8048L28.6136 45.31L32.1089 48.8053L29.614 52.1276C30.2174 53.1352 30.6709 54.2253 30.9603 55.3635L35.0607 55.944V60.8843L30.9603 61.4648Z" fill="#D8D7DA"/>
<path d="M71.0757 26.1043C70.6196 25.6442 70.0771 25.2786 69.4795 25.0285C68.8818 24.7784 68.2406 24.6487 67.5927 24.6469C67.0278 24.646 66.4672 24.7464 65.9377 24.9433C65.2442 25.1858 64.6149 25.5828 64.0974 26.1043L62.3436 27.8458L65.9377 31.4399L69.3342 34.8363L71.0757 33.0825C71.5364 32.6257 71.9021 32.0822 72.1517 31.4834C72.4012 30.8845 72.5297 30.2422 72.5297 29.5934C72.5297 28.9446 72.4012 28.3023 72.1517 27.7034C71.9021 27.1046 71.5364 26.5611 71.0757 26.1043Z" fill="#E6E7E8"/>
<path d="M65.9376 31.4398L62.3435 27.8457L60.9973 29.192V29.2043L59.7252 30.4641L60.9973 31.7362L63.2204 33.9594L65.9376 36.6766L66.7157 37.4547L69.3341 34.8363L65.9376 31.4398Z" fill="#90B9E9"/>
<path d="M60.9979 57.1788L51.1172 67.0594V59.649C51.1192 58.9944 51.3801 58.3673 51.8429 57.9045C52.3057 57.4416 52.9329 57.1808 53.5874 57.1788H60.9979Z" fill="#D1D3D4"/>
<path d="M60.9979 57.1788V65.8244C60.9979 66.1519 60.8678 66.4661 60.6361 66.6977C60.4045 66.9293 60.0904 67.0594 59.7628 67.0594H51.1172L60.9979 57.1788Z" fill="#EEEEEE"/>
<path d="M44.8798 55.7955L42.2614 58.4139C41.9152 58.758 41.4749 58.9918 40.9959 59.0859C40.517 59.18 40.0209 59.13 39.5703 58.9424C39.1198 58.7548 38.7349 58.4378 38.4642 58.0316C38.1936 57.6254 38.0494 57.1482 38.0498 56.6601C38.0484 56.3369 38.1109 56.0166 38.2339 55.7178C38.3568 55.4189 38.5377 55.1473 38.7661 54.9186L41.3845 52.3002L44.8798 55.7955Z" fill="#787680"/>
<path d="M50.1166 54.0421L49.2521 54.919L44.8799 55.796L41.3846 52.3007L42.2616 47.9285L43.1385 47.0639L46.6214 50.5592H46.6337L50.1166 54.0421Z" fill="#898890"/>
<path d="M60.9974 31.7362L59.7253 30.4641L43.1382 47.0636L46.6211 50.5588H46.6335L60.9974 36.1825L63.2206 33.9593L60.9974 31.7362Z" fill="#DDBEF0"/>
<path d="M65.9377 36.6769L63.2205 33.9597L60.9974 36.1828L46.6334 50.5592L50.1163 54.0421L60.9974 43.1611L65.9377 38.2207L66.7158 37.455L65.9377 36.6769Z" fill="#D6AEEF"/>
<path d="M35.407 29.6613C36.0371 30.5696 36.3443 31.6629 36.2796 32.7664C36.2149 33.87 35.782 34.9199 35.0501 35.7483C34.3182 36.5767 33.3296 37.1357 32.2424 37.3359C31.1553 37.5361 30.0324 37.3659 29.0535 36.8525C28.0745 36.3392 27.2959 35.5123 26.8424 34.5042C26.3889 33.4961 26.2866 32.365 26.5518 31.2919C26.817 30.2187 27.4345 29.2656 28.3055 28.5848C29.1764 27.9041 30.2505 27.5351 31.3559 27.5369C32.1522 27.5392 32.9362 27.7335 33.6415 28.1033C34.3467 28.4731 34.9523 29.0075 35.407 29.6613Z" fill="#C6C5CA"/>
<path d="M26.4149 16.4215H53.5867V20.1267H26.4149V16.4215Z" fill="#90B9E9"/>
<path d="M51.907 10.2458C51.0063 9.45155 49.8472 9.01249 48.6464 9.01076H44.9411V5.30552C44.9411 3.99527 44.4206 2.73868 43.4941 1.81219C42.5676 0.8857 41.3111 0.365204 40.0008 0.365204C38.6905 0.365204 37.434 0.8857 36.5075 1.81219C35.581 2.73868 35.0605 3.99527 35.0605 5.30552V9.01076H31.3552C30.0459 9.0137 28.791 9.53514 27.8651 10.461C26.9393 11.3868 26.4179 12.6417 26.4149 13.9511V16.4212H53.5867V13.9511C53.5871 13.2494 53.4374 12.5558 53.1477 11.9167C52.858 11.2777 52.4349 10.708 51.907 10.2458Z" fill="#5399ED"/>
<path d="M32.109 68.0231L30.6022 69.5299L28.6138 71.5184L25.9707 69.5299L25.2914 69.0235C24.9837 69.2092 24.6662 69.3782 24.3404 69.5299C23.61 69.8884 22.8442 70.1699 22.0555 70.3698L21.8208 72.0001H19.0048C17.9359 72.0001 16.8958 71.6534 16.0406 71.012L15.9542 70.3698C15.6825 70.2957 15.3984 70.2215 15.139 70.1351C14.4457 69.2597 14.0672 68.1764 14.0645 67.0597V47.1255C14.6729 46.8465 15.3054 46.6233 15.9542 46.4586L16.5347 42.3581H19.0048V65.8247C19.0048 66.1522 19.135 66.4664 19.3666 66.698C19.5982 66.9296 19.9124 67.0597 20.2399 67.0597H31.3803L32.109 68.0231Z" fill="#8B5E3C"/>
<path d="M28.4899 58.9947C28.2005 60.1329 27.747 61.223 27.1436 62.2306L29.6385 65.5529L28.1317 67.0597L26.1432 69.0482L23.5002 67.0597L22.8209 66.5534C22.5131 66.739 22.1957 66.9081 21.8699 67.0597C21.1394 67.4182 20.3737 67.6997 19.585 67.8996L19.0045 72.0001H14.0642L13.4837 67.8996C12.3454 67.6102 11.2554 67.1567 10.2478 66.5534L6.92539 69.0482L3.43011 65.5529L5.92497 62.2306C5.32161 61.223 4.86811 60.1329 4.57874 58.9947L0.478271 58.4142V53.4739L4.57874 52.8934C4.86811 51.7551 5.32161 50.6651 5.92497 49.6575L3.43011 46.3351L6.92539 42.8398L10.2478 45.3347C11.2554 44.7313 12.3454 44.2778 13.4837 43.9885L14.0642 39.888H19.0045L19.585 43.9885C20.7232 44.2778 21.8133 44.7313 22.8209 45.3347L26.1432 42.8398L29.6385 46.3351L27.1436 49.6575C27.747 50.6651 28.2005 51.7551 28.4899 52.8934L32.5904 53.4739V58.4142L28.4899 58.9947Z" fill="#5399ED"/>
<path d="M19.0051 50.2749C18.2244 49.9408 17.3841 49.7685 16.5349 49.7685C15.6858 49.7685 14.8454 49.9408 14.0648 50.2749C12.963 50.7575 12.0257 51.5507 11.3676 52.5575C10.7094 53.5643 10.3589 54.7411 10.3589 55.9439C10.3589 57.1467 10.7094 58.3235 11.3676 59.3303C12.0257 60.3371 12.963 61.1303 14.0648 61.6129C14.8454 61.947 15.6858 62.1193 16.5349 62.1193C17.3841 62.1193 18.2244 61.947 19.0051 61.6129C20.1069 61.1303 21.0441 60.3371 21.7023 59.3303C22.3605 58.3235 22.711 57.1467 22.711 55.9439C22.711 54.7411 22.3605 53.5643 21.7023 52.5575C21.0441 51.5507 20.1069 50.7575 19.0051 50.2749Z" fill="#FED5BF"/>
<path d="M38.7662 4.07069H41.2363V6.54085H38.7662V4.07069Z" fill="#CC7400"/>
<path d="M15.2995 43.5931H17.7697V46.0633H15.2995V43.5931Z" fill="#90B9E9"/>
<path d="M6.92078 48.0801L8.66744 46.3335L10.4141 48.0801L8.66744 49.8268L6.92078 48.0801Z" fill="#90B9E9"/>
<path d="M4.18408 54.7086H6.65424V57.1788H4.18408V54.7086Z" fill="#90B9E9"/>
<path d="M6.91943 63.7988L8.6661 62.0521L10.4128 63.7988L8.6661 65.5454L6.91943 63.7988Z" fill="#90B9E9"/>
<path d="M15.2995 65.8247H17.7697V68.2949H15.2995V65.8247Z" fill="#90B9E9"/>
<path d="M22.6381 63.8001L24.3848 62.0535L26.1315 63.8001L24.3848 65.5468L22.6381 63.8001Z" fill="#90B9E9"/>
<path d="M26.4149 54.7086H28.8851V57.1788H26.4149V54.7086Z" fill="#90B9E9"/>
<path d="M22.6395 48.0816L24.3861 46.3349L26.1328 48.0816L24.3861 49.8282L22.6395 48.0816Z" fill="#90B9E9"/>
<path d="M30.475 32.8393L36.6494 26.6649L38.3958 28.4113L32.2214 34.5857L30.475 32.8393Z" fill="#C6C5CA"/>
<path d="M40.0012 28.7722H42.4714V31.2423H40.0012V28.7722Z" fill="#C6C5CA"/>
<path d="M44.9414 28.7722H49.8817V31.2423H44.9414V28.7722Z" fill="#C6C5CA"/>
<path d="M40.0012 33.7122H47.4117V36.1823H40.0012V33.7122Z" fill="#C6C5CA"/>
</svg>
